PathFileType	4	(X/Y/Z)	C:\Users\WrightLab\Desktop\Jo\P5V32.trc
DataRate	CameraRate	NumFrames	NumMarkers	Units	OrigDataRate	OrigDataStartFrame	OrigNumFrames
100.00	100.00	      18	19	mm	100.00	551	      1100
Frame#	Time	Headset_Front			Headset_Back			Headset_Left			Headset_Right			Left_Shoulder			Right_Shoulder			Sternum			C7			Left Elbow			Right Elbow			Left Wrist			Right Wrist			Left ASIS			Right ASIS			S2			Left Knee			Right Knee			Left Ankle			Right Ankle			
		X1	Y1	Z1	X2	Y2	Z2	X3	Y3	Z3	X4	Y4	Z4	X5	Y5	Z5	X6	Y6	Z6	X7	Y7	Z7	X8	Y8	Z8	X9	Y9	Z9	X10	Y10	Z10	X11	Y11	Z11	X12	Y12	Z12	X13	Y13	Z13	X14	Y14	Z14	X15	Y15	Z15	X16	Y16	Z16	X17	Y17	Z17	X18	Y18	Z18	X19	Y19	Z19	

551	5.500	-216.68115	1506.79163	371.07077							-329.52597	1574.54492	297.87769	-11.43364	1511.14929	89.63969	-408.20209	1441.08032	164.40002	-197.09315	1307.98962	196.41052	-247.07857	1520.33240	4.55579	-15.86354	1277.15173	222.86591	-529.79852	1211.55737	223.69835	75.00681	1230.37817	42.41769	-492.36771	1182.12988	459.78998	-44.24235	925.30359	160.49187	-316.95584	928.72845	212.31958	-217.30188	972.74756	-83.14233	-70.93484	489.70560	105.49833	-320.29160	541.67938	297.05914	-115.43768	100.93179	-121.10834	-303.73428	118.84171	319.96130	
552	5.510	-216.24313	1506.41626	378.08707							-329.86258	1574.45825	305.23553	-12.12520	1510.18433	97.01369	-408.83408	1440.51001	172.24753	-197.90947	1307.95813	203.52342	-247.65294	1519.45007	11.34365	-16.17960	1276.89124	230.15236	-530.35138	1210.86621	231.60501	74.76678	1229.67847	48.86750	-492.31024	1180.70691	467.59894	-45.24764	924.87897	167.75316	-318.08286	928.08240	220.24603	-218.18857	971.85107	-75.41906	-73.63927	490.04822	109.59032	-321.13480	540.46204	303.71130	-115.69078	101.72840	-120.41419	-301.85211	117.75967	327.70578	
553	5.520	-215.99274	1506.55139	385.06790							-330.64417	1574.58740	312.60782	-13.04411	1510.00073	104.13329	-409.30371	1440.17419	179.92224	-198.13795	1307.74170	211.15883	-248.52225	1518.59741	19.17160	-16.34237	1275.73120	237.38423	-530.71271	1210.12561	239.49391	73.90753	1229.12390	57.57122	-492.78192	1179.84546	474.99136	-46.31746	924.26886	175.42673	-318.62634	927.80518	228.06888	-218.70995	970.55103	-67.67036	-76.48273	489.29422	114.01091	-321.65637	539.77228	310.03586	-115.71838	102.29326	-119.15467	-300.62195	116.28943	333.67230	
554	5.530	-217.66461	1506.42957	392.93811							-331.05219	1574.74744	319.67172	-13.68146	1509.00659	111.22392	-410.14169	1439.58447	187.23047	-199.52359	1307.40527	219.15184	-249.79367	1517.85999	26.83267	-16.59030	1276.04822	244.58337	-531.08997	1209.42297	247.02516	72.77789	1228.97888	64.51173	-492.45898	1178.36206	483.13666	-47.61801	923.44019	183.74588	-319.15506	927.29950	236.22620	-219.18973	970.32867	-59.72076	-79.25262	489.27869	118.71247	-323.10260	539.08002	316.65915	-115.28832	104.20462	-118.00151	-299.09979	114.73631	338.28391	
555	5.540	-218.47928	1506.95764	400.23813							-332.20984	1574.28271	327.26660	-14.58377	1508.97949	118.28371	-411.07498	1438.74316	194.74173	-199.90468	1306.97681	227.13635	-250.47305	1517.26685	34.04973	-17.09292	1275.34070	252.25809	-531.57416	1208.48657	254.93767	71.87277	1228.57910	72.34216	-493.46310	1177.38684	491.05096	-49.42522	923.13873	191.70215	-319.73483	926.98596	244.53616	-219.33131	968.55042	-50.87434	-81.79885	489.01880	123.43166	-323.70291	537.47833	321.99280	-115.74082	106.20842	-118.27699	-297.68246	112.33789	341.38736	
556	5.550	-219.21184	1506.66650	407.61639							-333.18411	1574.72937	334.09299	-15.64796	1508.21033	125.41238	-412.24622	1438.27124	202.25578	-201.21799	1306.83386	234.97258	-251.70700	1516.54663	41.17895	-18.03483	1275.87256	259.59781	-532.10126	1207.44763	263.02338	71.00039	1227.96912	77.84398	-494.06516	1176.35510	498.65570	-50.45290	922.85913	199.16881	-321.27319	927.40741	254.03934	-220.06015	967.58630	-42.32281	-84.59454	487.84048	128.32240	-325.03970	536.17426	328.68597	-115.07686	107.30140	-116.75022	-296.51343	110.17695	343.14273	
557	5.560	-221.00024	1507.02283	415.23853							-334.26733	1574.34717	341.56360	-17.37353	1507.72852	133.12196	-413.32245	1437.86902	210.05956	-201.85045	1306.49658	242.86314	-253.06384	1515.57593	48.41461	-17.75305	1275.20215	267.26581	-532.70868	1206.99146	270.74808	70.80866	1227.74548	87.39862	-494.33417	1175.05469	506.16080	-51.86188	922.68567	207.77931	-322.28928	927.69324	263.54562	-220.19489	966.69727	-33.25840	-87.34087	487.35501	133.48799	-325.62775	533.48859	333.72714	-115.25833	108.65032	-115.83098	-295.29376	108.23715	343.68726	
558	5.570	-221.69781	1506.96191	422.28503							-335.27414	1574.42810	348.63446	-18.35754	1507.43555	140.33037	-414.55841	1437.15051	217.63052	-203.41583	1306.11169	251.15204	-254.87872	1514.72192	55.99131	-18.14450	1275.37805	274.69241	-533.70367	1205.81531	279.00064	69.34237	1227.01038	94.19628	-494.81686	1174.10779	514.32556	-53.32584	922.34906	217.09283	-323.80203	927.17981	273.06348	-220.70009	965.43274	-24.80549	-89.33773	488.19016	138.98842	-327.26321	530.51788	339.34048	-115.50618	111.18274	-114.36317	-294.45190	106.59120	344.34222	
559	5.580	-223.73346	1507.40466	429.83234							-336.51764	1574.17590	355.81198	-20.17698	1507.15405	147.71053	-415.84833	1436.88660	225.04291	-204.95717	1305.81091	259.55527	-256.07217	1513.69275	63.02561	-18.74134	1275.22461	282.31757	-534.48358	1204.96924	286.77756	68.19776	1227.07581	101.48682	-495.70679	1173.03455	522.33289	-54.81466	922.32074	226.28986	-324.56277	926.36261	282.97208	-221.01926	964.11749	-15.90091	-91.95131	487.55835	144.28557	-327.96185	527.55139	344.27225	-114.98627	112.79921	-113.01690	-292.55954	105.38481	346.15057	
560	5.590	-223.87003	1506.93591	436.57462							-338.39691	1574.03394	363.46008	-21.62512	1506.54858	154.50639	-417.83966	1436.45691	233.13908	-206.79137	1306.43103	267.30884	-257.29803	1512.65491	70.66465	-19.63170	1275.71631	290.24274	-535.30548	1203.84375	294.66464	67.14809	1227.14294	108.16201	-496.37372	1172.45264	529.87659	-55.75105	922.33136	235.23334	-325.70322	926.43903	293.05817	-221.06566	962.80408	-5.90047	-94.86799	486.77759	150.75482	-328.25922	523.72223	349.14050	-114.50275	115.25572	-110.83700	-290.71405	104.90171	347.72748	
561	5.600	-225.30249	1507.16211	443.93762							-339.98590	1574.17761	370.57523	-23.40050	1506.41125	162.41307	-419.13605	1435.90637	240.54845	-208.07443	1306.16113	275.45648	-258.96561	1512.10376	77.48592	-20.13236	1275.81506	297.71124	-536.53735	1203.21729	302.78690	65.73650	1226.59741	116.79836	-496.66800	1171.34912	538.36249	-58.21655	922.09900	244.77733	-326.95737	926.45471	303.63129	-221.33748	962.04645	1.23157	-97.57991	486.62357	157.15509	-328.49283	520.35675	354.09595	-113.53242	118.53367	-108.56272	-289.96255	104.99830	348.78015	
562	5.610	-227.12152	1507.94556	451.40619							-341.45392	1574.70654	377.78339	-24.74318	1506.71436	169.30940	-421.26547	1435.77673	248.10736	-209.63602	1307.29480	283.75351	-260.94897	1512.64624	85.24862	-20.87247	1276.53943	305.61942	-537.54584	1202.55249	310.38068	64.93147	1226.59216	125.41119	-497.15921	1170.43750	545.72272	-59.61008	922.93927	254.49245	-327.49100	927.34741	313.98328	-222.08966	960.95538	10.45837	-99.71539	487.03268	164.61945	-326.77133	517.41711	357.59943	-112.60204	121.42931	-107.13743	-289.98691	104.98383	349.03821	
563	5.620	-229.28172	1508.54199	459.14090							-343.01434	1575.55750	385.68909	-26.46947	1507.81384	176.48727	-422.97223	1436.43347	255.57254	-210.83952	1308.35364	292.54507	-262.63382	1512.97937	92.44630	-21.52533	1277.22595	313.80035	-538.43683	1202.28113	318.61057	63.17033	1227.28333	132.40460	-498.51389	1169.64441	554.11420	-61.44687	923.70953	263.28766	-328.44174	927.21564	323.73505	-222.67340	961.37866	20.02219	-102.19884	486.29071	171.54121	-324.63162	517.21899	362.75809	-111.94573	125.65057	-103.60808	-290.32346	104.97174	349.44647	
564	5.630	-229.51935	1509.00061	466.06763							-344.90976	1576.74512	393.51910	-28.13140	1508.42786	184.00278	-424.12216	1437.24841	263.25833	-212.54788	1309.47266	300.53342	-263.81247	1513.77368	100.33681	-22.35955	1277.62488	321.88062	-539.16272	1202.43323	326.00043	62.08859	1228.27368	139.82413	-498.42276	1168.48474	561.41235	-63.33641	924.58142	273.75360	-329.10678	929.00391	334.20117	-222.74454	961.18066	29.55992	-104.40692	487.14343	180.65468	-323.25052	518.48273	368.06674	-112.43620	130.26965	-100.35853	-290.93195	104.88124	350.33777	
565	5.640	-232.33127	1510.81396	473.78592							-346.66403	1577.52319	401.12274	-29.30893	1509.27136	191.94679	-425.76733	1438.06079	270.45999	-213.38068	1310.83252	308.74518	-265.43301	1514.42859	108.32310	-23.14023	1278.83130	329.97189	-539.69958	1202.60156	333.55908	60.77477	1229.11121	148.60457	-498.84531	1168.23035	569.15173	-65.42292	925.57855	283.43298	-330.37903	930.31927	343.89767	-223.75299	961.44519	38.93319	-104.81927	487.58060	191.14868	-323.13870	520.90759	375.47116	-111.47170	135.27092	-94.05036	-291.46588	104.99107	351.13693	
566	5.650	-233.82599	1511.02087	481.38528							-348.47040	1578.35620	408.23398	-31.22893	1510.50330	198.90666	-427.32608	1439.07324	278.19580	-215.43610	1312.56335	316.93646	-266.63272	1515.15564	115.64794	-24.31054	1280.01392	337.70059	-539.63452	1203.33630	341.30328	59.10257	1230.94092	156.28130	-499.03592	1167.75708	576.20972	-67.31799	927.33044	292.61688	-331.41718	932.60950	353.74500	-224.15939	962.46545	48.45974	-103.25613	490.30435	203.58957	-323.02899	523.77899	382.74905	-112.27641	140.55153	-88.79352	-291.89612	105.17928	351.21835	
567	5.660	-236.50812	1513.01685	489.30338							-350.04016	1579.27295	415.28430	-32.61630	1511.66626	205.50786	-428.70377	1440.77405	286.17493	-216.85857	1313.35217	325.37839	-267.94806	1515.87830	123.25679	-24.93653	1281.27026	345.69336	-539.66589	1204.14905	348.47998	57.52518	1231.73926	162.97794	-498.99951	1167.10583	583.53619	-67.90869	928.31152	302.61234	-332.64539	933.70770	362.87378	-224.70952	963.57587	57.04585	-101.32836	491.89920	217.72917	-323.71140	525.53259	390.01169	-112.21674	147.45259	-81.98061	-292.33136	104.90119	351.33237	
568	5.670	-237.25949	1513.79163	496.78412							-351.94086	1580.01880	422.35614	-33.70971	1512.29468	214.48705	-429.79221	1441.44788	293.42932	-217.93250	1314.48291	332.77707	-269.44299	1517.03577	131.19704	-26.66023	1282.41504	353.54175	-540.00397	1204.79211	356.32004	56.64341	1233.21326	169.84975	-498.48141	1166.63391	590.40533	-69.84166	929.73578	311.08572	-333.56174	935.38312	371.93967	-225.05788	964.28906	65.78089	-99.45248	490.81961	234.51515	-324.30017	526.59967	396.46756	-112.25208	154.74945	-74.05581	-293.40652	104.89941	351.91412	
